<svg width="1001" height="996" viewBox="0 0 1001 996" fill="none" xmlns="http://www.w3.org/2000/svg">
<path d="M500.36 0.0598145C224.171 0.0598145 0.359863 222.954 0.359863 498.011C0.359863 773.067 224.171 995.961 500.36 995.961C776.548 995.961 1000.36 773.067 1000.36 498.011C1000.36 222.954 776.548 0.0598145 500.36 0.0598145ZM935.562 472.885C869.546 487.019 803.198 490.714 727.549 480.164C725.131 479.833 722.75 479.373 720.351 479.006C719.17 276.458 666.83 130.852 591.346 68.9664C779.391 110.763 924.046 272.653 935.562 472.867V472.885ZM500.36 569.472C490.726 569.417 481.203 568.737 472.104 567.395C456.749 565.3 416.055 559.675 390.032 533.815C374.585 519.589 371.373 500.602 378.165 485.898C393.889 447.852 455.55 430.409 475.297 471.562C486.979 494.923 485.983 526.628 482.882 553.978C482.679 556.79 483.178 558.793 484.285 560.503C485.688 562.414 487.386 563.609 489.379 564.307L490.874 564.509H509.883L511.378 564.307C513.371 563.609 515.069 562.396 516.472 560.503C517.56 558.793 518.059 556.79 517.874 553.978C514.774 526.647 513.777 494.923 525.459 471.562C545.207 430.409 606.867 447.852 622.591 485.898C629.383 500.62 626.172 519.589 610.725 533.815C584.702 559.675 544.007 565.3 528.652 567.395C519.554 568.737 510.031 569.417 500.397 569.472H500.36ZM481.369 149.011L481.314 404.365C427.848 408.757 383.148 431.401 362.607 462.372C348.876 466.195 334.997 469.595 320.953 472.554C326.249 323.051 364.397 194.649 418.048 126.919C439.05 100.396 481.775 115.229 481.369 148.993V149.011ZM365.652 543.575C388.519 575.335 434.104 592.962 482.218 596.491L472.916 846.789C472.51 880.553 429.416 894.357 409.078 867.338C358.805 800.582 324.385 677.454 320.657 534.09C335.809 536.811 350.814 539.99 365.652 543.593V543.575ZM519.351 847.341L517.893 596.527C565.637 593.145 610.964 575.887 634.2 544.751C649.075 541.038 664.117 537.73 679.324 534.936C672.569 679.66 634.994 803.376 582.69 869.415C561.688 895.937 518.945 881.105 519.369 847.322L519.351 847.341ZM636.968 460.718C616.317 431.107 573.463 409.419 522.064 404.585L527.803 149.563C528.209 115.799 571.303 101.995 591.641 129.014C643.022 197.222 677.866 324.301 680.284 471.69C665.685 468.511 651.272 464.816 636.968 460.718ZM424.193 64.1325C344.373 122.893 286.035 270.779 280.775 479.741C224.596 487.902 166.055 488.729 105.28 480.182C88.0795 477.756 71.1003 474.576 54.2872 470.808C66.7448 265.963 221.2 96.7018 424.193 64.1508V64.1325ZM55.0993 535.451C71.4879 532.326 88.061 529.716 104.837 527.713C165.335 520.379 223.931 520.986 280.498 527.988C283.506 728.146 337.323 871.014 413.526 930.143C222.104 894.577 72.1707 735.241 55.0993 535.451ZM581.066 929.279C657.14 869.728 712.636 727.816 719.65 528.724C722.141 528.411 724.614 528.007 727.124 527.713C802.146 518.706 868.439 521.666 934.916 533.76C919.192 729.58 773.688 891.342 581.066 929.279Z" fill="#E3D9C1"/>
</svg>
